<svg width="525" height="427" viewBox="0 0 525 427" fill="none" xmlns="http://www.w3.org/2000/svg">
<g filter="url(#filter0_d_126_6)">
<path d="M168.038 399.218C156.161 406.399 144.836 410.681 134.064 412.062C123.292 413.719 113.624 412.338 105.062 407.919C96.7755 403.775 89.8703 396.732 84.3461 386.789C79.0981 376.845 76.4741 364.278 76.4741 349.086V310.969H84.3461C85.4509 314.284 86.832 318.012 88.4893 322.156C90.1465 326.022 92.9086 328.923 96.7756 330.856C100.919 332.79 106.581 333.204 113.762 332.099C121.22 330.994 130.887 326.989 142.764 320.084C142.764 320.084 147.322 317.322 156.437 311.798C165.828 305.997 177.981 298.678 192.897 289.839C208.088 280.724 225.213 270.366 244.272 258.765C263.606 247.165 283.493 235.426 303.933 223.549C350.888 195.099 404.335 162.783 464.273 126.599V221.063L168.038 399.218ZM452.257 67.3521L386.381 107.541L346.193 41.6646L412.069 0.647461L452.257 67.3521Z" fill="url(#paint0_linear_126_6)"/>
<path d="M464.352 225.68V300.258C453.182 306.61 438.398 315.262 419.999 326.213C401.601 337.164 377.618 351.839 348.049 370.237C343.669 371.99 340.383 373.194 338.193 373.851C335.784 374.508 334.36 373.742 333.922 371.551V309.129C333.922 307.158 338.631 302.887 348.049 296.316L464.352 225.68ZM445.194 385.227L397.227 414.796L367.002 366.501L415.954 336.604L445.194 385.227ZM512.648 376.543L464.352 406.112L434.784 357.816L483.736 327.919L512.648 376.543Z" fill="url(#paint1_linear_126_6)"/>
<path d="M347.344 271.087C339.678 274.81 330.808 279.629 320.733 285.543C310.657 291.676 300.473 294.742 290.178 294.742C277.913 294.742 268.604 291.018 262.253 283.572C256.12 276.125 253.053 267.911 253.053 258.931V207.35C241.007 213.921 228.632 221.039 215.928 228.705C203.444 236.371 192.055 243.49 181.76 250.06C171.466 256.631 162.705 262.107 155.477 266.487C148.249 270.868 144.416 273.058 143.978 273.058C136.312 278.096 128.099 282.586 119.338 286.528C110.796 290.69 101.816 293.209 92.3976 294.085C69.8379 295.837 51.9872 292.333 38.8457 283.572C25.9231 274.81 16.3955 263.202 10.2627 248.746C4.34901 234.072 1.17312 217.426 0.735072 198.808C0.297019 180.191 1.50166 162.012 4.34901 144.271C7.41537 126.53 11.4674 110.322 16.505 95.6469C21.7616 80.7531 26.7992 69.4732 31.6178 61.8073C38.8457 53.2653 48.4828 45.2708 60.5293 37.8239C72.7947 30.158 90.0978 19.5352 112.439 5.95557V80.8626L43.7738 122.587C36.5459 126.53 30.6322 131.677 26.0326 138.028C21.6521 144.161 18.5857 150.842 16.8335 158.069C15.0813 165.297 14.7528 172.854 15.8479 180.739C16.943 188.624 19.5713 195.851 23.7328 202.422C32.2749 216.44 44.2118 225.42 59.5437 229.362C75.0945 233.086 89.7693 230.896 103.568 222.792L300.692 103.532V177.782C299.816 178.658 295.764 181.286 288.536 185.667C281.527 189.828 272.656 194.975 261.924 201.108C262.362 203.517 262.8 206.365 263.238 209.65C263.676 212.935 264.552 216.221 265.866 219.506C267.181 222.573 268.933 225.201 271.123 227.391C273.532 229.581 276.927 230.677 281.308 230.677C282.622 230.677 284.374 230.458 286.564 230.02C288.974 229.581 292.478 228.267 297.078 226.077C301.896 223.887 308.139 220.601 315.805 216.221C323.689 211.621 334.203 205.27 347.344 197.166V271.087ZM168.619 151.827L116.381 183.695L84.5127 131.458L136.75 98.9322L168.619 151.827Z" fill="url(#paint2_linear_126_6)"/>
</g>
<defs>
<filter id="filter0_d_126_6" x="-8.7738e-05" y="-8.7738e-05" width="524.088" height="426.236" filterUnits="userSpaceOnUse" color-interpolation-filters="sRGB">
<feFlood flood-opacity="0" result="BackgroundImageFix"/>
<feColorMatrix in="SourceAlpha" type="matrix" values="0 0 0 0 0 0 0 0 0 0 0 0 0 0 0 0 0 0 127 0" result="hardAlpha"/>
<feOffset dx="5.39624" dy="5.39624"/>
<feGaussianBlur stdDeviation="3.02189"/>
<feComposite in2="hardAlpha" operator="out"/>
<feColorMatrix type="matrix" values="0 0 0 0 0 0 0 0 0 0 0 0 0 0 0 0 0 0 0.35 0"/>
<feBlend mode="normal" in2="BackgroundImageFix" result="effect1_dropShadow_126_6"/>
<feBlend mode="normal" in="SourceGraphic" in2="effect1_dropShadow_126_6" result="shape"/>
</filter>
<linearGradient id="paint0_linear_126_6" x1="270.373" y1="0.647461" x2="270.373" y2="412.74" gradientUnits="userSpaceOnUse">
<stop stop-color="#6B050E"/>
<stop offset="1" stop-color="#A70715"/>
</linearGradient>
<linearGradient id="paint1_linear_126_6" x1="423.285" y1="225.68" x2="423.285" y2="414.796" gradientUnits="userSpaceOnUse">
<stop stop-color="#6B050E"/>
<stop offset="1" stop-color="#A70715"/>
</linearGradient>
<linearGradient id="paint2_linear_126_6" x1="173.996" y1="5.95557" x2="173.996" y2="294.742" gradientUnits="userSpaceOnUse">
<stop stop-color="#6B050E"/>
<stop offset="1" stop-color="#A70715"/>
</linearGradient>
</defs>
</svg>
