<svg width="1920" height="1080" viewBox="0 0 1920 1080" fill="none" xmlns="http://www.w3.org/2000/svg">
<rect width="1920" height="1080" fill="#73060E"/>
<path d="M1691.44 292.102C1909.2 100.471 1909.2 100.471 1909.2 589.335C1909.2 1078.2 1909.2 1078.2 1794.92 1078.2C1680.65 1078.2 1680.65 1078.2 1578.16 838.718C1475.67 599.236 1475.67 599.236 1474.67 541.484C1473.67 483.733 1473.67 483.733 1691.44 292.102ZM127.513 648.608C244.226 642.27 244.227 642.269 331.86 702.079C419.494 761.888 419.494 761.889 485.138 851.428C550.782 940.967 550.782 940.968 559.766 1009.58C568.749 1078.2 568.748 1078.2 289.774 1078.2C10.7999 1078.2 10.7998 1078.2 10.7998 866.573C10.7998 654.947 10.7998 654.947 127.513 648.608ZM850.198 654.403C892.402 624.533 892.401 624.532 1030.98 811.767C1169.56 999.001 1169.56 999.001 1184.68 1038.6C1199.8 1078.2 1199.8 1078.2 886.092 1078.2C572.38 1078.2 572.38 1078.2 563.393 1009.56C554.406 940.915 554.406 940.915 681.2 812.595C807.995 684.274 807.995 684.274 850.198 654.403ZM1338.18 608.445C1472.71 601.482 1472.71 601.482 1574.72 839.841C1676.73 1078.2 1676.73 1078.2 1440.19 1078.2C1203.66 1078.2 1203.66 1078.2 1188.32 1038.03C1172.98 997.867 1172.98 997.866 1188.31 806.638C1203.64 615.409 1203.64 615.409 1338.18 608.445ZM907.099 574.939C919.436 528.21 919.436 528.21 1030.02 536.079C1140.6 543.948 1140.6 543.948 1170.36 579.118C1200.12 614.289 1200.12 614.289 1184.93 803.743C1169.75 993.197 1169.75 993.197 1032.25 807.434C894.761 621.67 894.761 621.669 907.099 574.939ZM506.557 650.254C590.105 539.915 590.105 539.915 697.06 611.548C804.014 683.18 804.015 683.18 678.362 810.345C552.71 937.509 552.71 937.51 487.859 849.052C423.008 760.594 423.008 760.593 506.557 650.254ZM455.841 359.829C537.247 357.583 537.248 357.584 577.415 401.494C617.582 445.404 617.582 445.405 602.829 491.018C588.077 536.631 588.076 536.631 504.22 647.377C420.363 758.123 420.362 758.124 333.685 698.967C247.007 639.81 247.007 639.809 310.721 500.942C374.434 362.075 374.434 362.075 455.841 359.829ZM606.368 491.772C620.91 446.811 620.911 446.811 756.59 451.869C892.269 456.927 892.269 456.928 904.232 491.652C916.196 526.378 916.196 526.378 903.711 573.666C891.226 620.954 891.226 620.953 849.012 650.832C806.797 680.711 806.797 680.711 699.312 608.723C591.826 536.735 591.826 536.734 606.368 491.772ZM108.018 1.7998C205.236 1.7998 205.237 1.7996 288.26 181.055C371.283 360.31 371.282 360.31 307.418 499.506C243.554 638.701 243.554 638.701 127.177 645.021C10.7999 651.342 10.7998 651.341 10.7998 326.571C10.7998 1.80082 10.7998 1.7998 108.018 1.7998ZM1219.84 450.239C1295.86 358.285 1295.86 358.285 1382.97 421.074C1470.07 483.864 1470.07 483.864 1471.06 540.888C1472.04 597.911 1472.04 597.911 1337.41 604.88C1202.77 611.849 1202.77 611.849 1173.3 577.021C1143.83 542.193 1143.83 542.193 1219.84 450.239ZM964.939 283.707C1015.25 227.4 1015.25 227.399 1136.03 242.86C1256.81 258.321 1256.81 258.322 1275.15 306.91C1293.49 355.498 1293.49 355.498 1217.09 447.921C1140.69 540.344 1140.69 540.344 1030.04 532.471C919.391 524.597 919.391 524.597 907.405 489.809C895.42 455.02 895.42 455.02 905.026 397.518C914.633 340.015 914.632 340.014 964.939 283.707ZM1675.73 1.7998C1909.2 1.7998 1909.2 1.79991 1909.2 48.7373C1909.2 95.6746 1909.2 95.675 1690.47 288.153C1471.75 480.632 1471.74 480.631 1384.39 417.664C1297.04 354.697 1297.04 354.697 1278.59 305.817C1260.14 256.938 1260.14 256.938 1351.2 129.369C1442.26 1.80022 1442.26 1.7998 1675.73 1.7998ZM599.069 263.441C657.859 171.317 657.859 171.317 784.417 255.687C910.975 340.056 910.975 340.056 901.515 396.687C892.054 453.317 892.054 453.317 756.245 448.254C620.437 443.191 620.436 443.191 580.358 399.378C540.28 355.565 540.28 355.565 599.069 263.441ZM412.951 1.7998C616.698 1.7998 616.697 1.80031 636.051 85.1357C655.404 168.471 655.404 168.471 596.21 261.229C537.016 353.988 537.016 353.988 455.708 356.231C374.4 358.475 374.4 358.474 291.802 180.137C209.204 1.7997 209.204 1.7998 412.951 1.7998ZM798.552 1.7998C976.709 1.7998 976.709 1.79987 994.666 113.367C1012.62 224.935 1012.62 224.935 962.632 280.888C912.641 336.84 912.641 336.84 785.781 252.27C658.921 167.699 658.921 167.699 639.657 84.749C620.394 1.79984 620.394 1.7998 798.552 1.7998ZM1209.1 1.7998C1437.84 1.7998 1437.84 1.8003 1347.56 128.276C1257.28 254.752 1257.28 254.752 1136.69 239.316C1016.1 223.88 1016.1 223.88 998.228 112.84C980.356 1.7998 980.356 1.7998 1209.1 1.7998Z" fill="url(#paint0_radial_111_44)"/>
<defs>
<radialGradient id="paint0_radial_111_44" cx="0" cy="0" r="1" gradientUnits="userSpaceOnUse" gradientTransform="translate(960 600.366) rotate(-90) scale(480.772 805.925)">
<stop stop-color="#49040E"/>
<stop offset="1" stop-color="#73060E"/>
</radialGradient>
</defs>
</svg>
