<svg width="424" height="346" viewBox="0 0 424 346" fill="none" xmlns="http://www.w3.org/2000/svg">
<g filter="url(#filter0_d_106_11)">
<path d="M135.244 321.132C125.693 326.907 116.588 330.349 107.926 331.46C99.264 332.792 91.4906 331.682 84.6056 328.128C77.9427 324.797 72.3903 319.134 67.9484 311.138C63.7286 303.143 61.6187 293.037 61.6187 280.822V250.173H67.9484C68.8368 252.838 69.9473 255.836 71.2799 259.168C72.6124 262.277 74.8334 264.609 77.9427 266.164C81.2742 267.718 85.8272 268.051 91.6017 267.163C97.5983 266.275 105.372 263.054 114.922 257.502C114.922 257.502 118.586 255.281 125.916 250.839C133.467 246.175 143.239 240.289 155.232 233.182C167.448 225.853 181.218 217.524 196.542 208.196C212.089 198.868 228.08 189.429 244.515 179.879C282.271 157.003 325.247 131.018 373.442 101.923V177.88L135.244 321.132ZM363.781 54.2837L310.811 86.5987L278.496 33.6287L331.466 0.647461L363.781 54.2837Z" fill="url(#paint0_linear_106_11)"/>
<path d="M373.506 181.593V241.56C364.524 246.668 352.636 253.624 337.842 262.43C323.049 271.236 303.764 283.036 279.988 297.829C276.466 299.238 273.824 300.207 272.063 300.735C270.126 301.264 268.981 300.647 268.629 298.886V248.693C268.629 247.108 272.415 243.674 279.988 238.39L373.506 181.593ZM358.101 309.883L319.532 333.658L295.228 294.825L334.59 270.785L358.101 309.883ZM412.339 302.9L373.506 326.675L349.73 287.842L389.092 263.802L412.339 302.9Z" fill="url(#paint1_linear_106_11)"/>
<path d="M279.422 218.104C273.258 221.098 266.125 224.972 258.023 229.728C249.922 234.659 241.733 237.124 233.455 237.124C223.593 237.124 216.108 234.13 211 228.143C206.069 222.155 203.604 215.55 203.604 208.329V166.854C193.917 172.138 183.967 177.861 173.752 184.025C163.713 190.19 154.555 195.913 146.278 201.197C138 206.48 130.956 210.883 125.144 214.405C119.332 217.928 116.25 219.689 115.898 219.689C109.734 223.74 103.129 227.35 96.0848 230.52C89.2163 233.866 81.9955 235.892 74.4226 236.596C56.2826 238.005 41.9292 235.187 31.3622 228.143C20.9714 221.098 13.3103 211.764 8.37907 200.14C3.62394 188.34 1.07026 174.956 0.718029 159.986C0.365797 145.016 1.33443 130.398 3.62394 116.133C6.08957 101.867 9.34771 88.8348 13.3984 77.035C17.6252 65.0591 21.6758 55.9892 25.5504 49.8251C31.3622 42.9566 39.1113 36.5283 48.7977 30.5404C58.6602 24.3763 72.5733 15.8347 90.5372 4.91553V65.1472L35.3248 98.6973C29.513 101.867 24.7579 106.006 21.0594 111.113C17.5371 116.045 15.0715 121.416 13.6626 127.228C12.2536 133.04 11.9894 139.116 12.87 145.456C13.7506 151.796 15.864 157.608 19.2102 162.892C26.0787 174.163 35.6771 181.384 48.0052 184.554C60.5094 187.548 72.3092 185.787 83.4045 179.27L241.909 83.3752V143.079C241.204 143.783 237.946 145.896 232.134 149.419C226.499 152.765 219.366 156.904 210.736 161.835C211.089 163.772 211.441 166.062 211.793 168.703C212.145 171.345 212.85 173.987 213.906 176.629C214.963 179.094 216.372 181.208 218.133 182.969C220.07 184.73 222.8 185.61 226.323 185.61C227.379 185.61 228.788 185.434 230.549 185.082C232.487 184.73 235.305 183.673 239.003 181.912C242.878 180.151 247.897 177.509 254.061 173.987C260.401 170.288 268.855 165.181 279.422 158.665V218.104ZM135.711 122.209L93.7073 147.834L68.0824 105.83L110.086 79.6767L135.711 122.209Z" fill="url(#paint2_linear_106_11)"/>
</g>
<defs>
<filter id="filter0_d_106_11" x="3.43323e-05" y="-8.7738e-05" width="423.779" height="345.098" filterUnits="userSpaceOnUse" color-interpolation-filters="sRGB">
<feFlood flood-opacity="0" result="BackgroundImageFix"/>
<feColorMatrix in="SourceAlpha" type="matrix" values="0 0 0 0 0 0 0 0 0 0 0 0 0 0 0 0 0 0 127 0" result="hardAlpha"/>
<feOffset dx="5.39624" dy="5.39624"/>
<feGaussianBlur stdDeviation="3.02189"/>
<feComposite in2="hardAlpha" operator="out"/>
<feColorMatrix type="matrix" values="0 0 0 0 0 0 0 0 0 0 0 0 0 0 0 0 0 0 0.35 0"/>
<feBlend mode="normal" in2="BackgroundImageFix" result="effect1_dropShadow_106_11"/>
<feBlend mode="normal" in="SourceGraphic" in2="effect1_dropShadow_106_11" result="shape"/>
</filter>
<linearGradient id="paint0_linear_106_11" x1="217.53" y1="0.647461" x2="217.53" y2="332.005" gradientUnits="userSpaceOnUse">
<stop stop-color="#6B050E"/>
<stop offset="1" stop-color="#A70715"/>
</linearGradient>
<linearGradient id="paint1_linear_106_11" x1="340.484" y1="181.593" x2="340.484" y2="333.658" gradientUnits="userSpaceOnUse">
<stop stop-color="#6B050E"/>
<stop offset="1" stop-color="#A70715"/>
</linearGradient>
<linearGradient id="paint2_linear_106_11" x1="140.035" y1="4.91553" x2="140.035" y2="237.124" gradientUnits="userSpaceOnUse">
<stop stop-color="#6B050E"/>
<stop offset="1" stop-color="#A70715"/>
</linearGradient>
</defs>
</svg>
